<svg width="49" height="49" viewBox="0 0 49 49" fill="none" xmlns="http://www.w3.org/2000/svg">
<path d="M27.1875 32.5625L35.25 24.5M35.25 24.5L27.1875 16.4375M35.25 24.5H13.75M11.6 46H37.4C40.4103 46 41.9155 46 43.0653 45.4141C44.0766 44.8989 44.8989 44.0766 45.4141 43.0653C46 41.9155 46 40.4103 46 37.4V11.6C46 8.58973 46 7.08457 45.4141 5.9348C44.8989 4.92342 44.0766 4.10115 43.0653 3.58585C41.9155 3 40.4103 3 37.4 3H11.6C8.58973 3 7.08457 3 5.9348 3.58585C4.92342 4.10115 4.10115 4.92342 3.58585 5.9348C3 7.08457 3 8.5897 3 11.6V37.4C3 40.4103 3 41.9155 3.58585 43.0653C4.10115 44.0766 4.92342 44.8989 5.9348 45.4141C7.08457 46 8.5897 46 11.6 46Z" stroke="#090909" stroke-width="5" stroke-linecap="round" stroke-linejoin="round"/>
</svg>
