<svg width="45" height="41" viewBox="0 0 45 41" fill="none" xmlns="http://www.w3.org/2000/svg">
<path d="M0.377676 17.2088C0.213767 16.9598 0.0999237 16.6806 0.042649 16.387C-0.0146258 16.0935 -0.0142095 15.7914 0.0438747 15.498C0.101959 15.2046 0.216573 14.9257 0.381167 14.6772C0.545762 14.4286 0.757112 14.2154 1.00314 14.0496L21.252 0.383004C21.6218 0.133273 22.0563 0 22.5007 0C22.9452 0 23.3797 0.133273 23.7494 0.383004L43.9983 14.0496C44.4002 14.3209 44.7052 14.716 44.8682 15.1764C45.0311 15.6368 45.0433 16.1381 44.903 16.6061C44.7627 17.0742 44.4774 17.484 44.0891 17.7751C43.7009 18.0662 43.2305 18.223 42.7474 18.2224H38.2476V38.7222C38.2476 39.3263 38.0106 39.9057 37.5886 40.3329C37.1667 40.76 36.5944 41 35.9977 41H8.99921C8.4025 41 7.83024 40.76 7.4083 40.3329C6.98637 39.9057 6.74933 39.3263 6.74933 38.7222V18.2224H2.24957L2.29232 18.1791C1.91807 18.1952 1.54595 18.1145 1.21099 17.9448C0.876033 17.775 0.589261 17.5217 0.377676 17.2088Z" fill="black"/>
</svg>
