<svg width="50" height="51" viewBox="0 0 50 51" fill="none" xmlns="http://www.w3.org/2000/svg">
<path d="M25.0005 0C11.1925 0 0 11.3018 0 25.2438C0 39.1867 11.1925 50.4884 25.0005 50.4884C38.8076 50.4884 50 39.1867 50 25.2438C50 11.3018 38.8076 0 25.0005 0ZM18.2682 20.0289C18.2682 20.065 18.2528 20.0968 18.2256 20.1192L11.1892 25.403L18.2256 30.6893C18.2528 30.7082 18.2682 30.7426 18.2682 30.777V34.0381C18.2682 34.0785 18.2485 34.1146 18.2162 34.1335C18.2018 34.1413 18.1873 34.1463 18.1702 34.1463C18.1515 34.1463 18.1319 34.1394 18.1157 34.1266L7.98184 26.5157C7.95547 26.4959 7.93838 26.4623 7.93838 26.4271V24.3795C7.93838 24.3434 7.95537 24.3099 7.98184 24.2901L18.1157 16.6793C18.1319 16.6664 18.1515 16.6604 18.1702 16.6604C18.1872 16.6604 18.2018 16.6647 18.2162 16.6732C18.2486 16.6912 18.2682 16.7274 18.2682 16.7687V20.0289ZM23.2929 35.5395C23.2784 35.5834 23.2427 35.6126 23.2 35.6126H20.3674C20.3351 35.6126 20.3061 35.5953 20.2873 35.566C20.2694 35.5386 20.2643 35.5024 20.2745 35.4698L26.7071 14.9472C26.7199 14.9041 26.7573 14.8758 26.7991 14.8758H29.6325C29.6632 14.8758 29.6938 14.8922 29.7117 14.9206C29.7296 14.949 29.7348 14.9851 29.7245 15.0186L23.2929 35.5395ZM42.06 26.4271C42.06 26.4623 42.0447 26.496 42.0174 26.5157L31.8835 34.1265C31.8673 34.1393 31.8486 34.1462 31.829 34.1462C31.8128 34.1462 31.7976 34.1411 31.783 34.1334C31.7507 34.1145 31.7311 34.0784 31.7311 34.038V30.7777C31.7311 30.7425 31.7464 30.7081 31.7736 30.6892L38.8101 25.4029L31.7736 20.1191C31.7465 20.0985 31.7311 20.0659 31.7311 20.0298V16.7687C31.7311 16.7274 31.7507 16.6912 31.783 16.6732C31.7975 16.6647 31.8128 16.6604 31.829 16.6604C31.8486 16.6604 31.8673 16.6664 31.8835 16.6793L42.0174 24.2901C42.0447 24.3099 42.06 24.3434 42.06 24.3795V26.4271Z" fill="black"/>
</svg>
