<svg width="335" height="59" viewBox="0 0 335 59" fill="none" xmlns="http://www.w3.org/2000/svg">
<path d="M35.3934 29.6806C36.3778 29.8363 37.2715 30.2387 38.0746 30.8877C38.9035 31.5367 39.5512 32.3414 40.0175 33.302C40.5097 34.2625 40.7558 35.2879 40.7558 36.3782C40.7558 37.7541 40.406 39.0002 39.7066 40.1165C39.0072 41.2068 37.9839 42.0765 36.6369 42.7255C35.3157 43.3485 33.7484 43.66 31.9351 43.66H21.8321V16.5188H31.5465C33.3858 16.5188 34.953 16.8304 36.2483 17.4534C37.5435 18.0505 38.515 18.8682 39.1626 19.9066C39.8102 20.945 40.134 22.1132 40.134 23.4112C40.134 25.0207 39.6937 26.3577 38.8129 27.422C37.958 28.4604 36.8182 29.2133 35.3934 29.6806ZM25.3681 28.2398H31.3134C32.9713 28.2398 34.2536 27.8504 35.1603 27.0716C36.0669 26.2928 36.5203 25.2154 36.5203 23.8396C36.5203 22.4637 36.0669 21.3863 35.1603 20.6075C34.2536 19.8287 32.9454 19.4393 31.2356 19.4393H25.3681V28.2398ZM31.6242 40.7395C33.3858 40.7395 34.7587 40.3242 35.7431 39.4934C36.7275 38.6627 37.2197 37.5075 37.2197 36.0278C37.2197 34.5221 36.7016 33.3409 35.6654 32.4842C34.6292 31.6016 33.2433 31.1603 31.5076 31.1603H25.3681V40.7395H31.6242ZM44.3416 32.9126C44.3416 30.7319 44.782 28.8239 45.6628 27.1884C46.5436 25.527 47.7481 24.2419 49.2765 23.3333C50.8308 22.4247 52.5535 21.9704 54.4446 21.9704C56.3098 21.9704 57.9288 22.3728 59.302 23.1776C60.675 23.9823 61.6983 24.9948 62.3718 26.2149V22.3209H65.9467V43.66H62.3718V39.6881C61.6724 40.9342 60.6232 41.9726 59.2243 42.8033C57.8511 43.6081 56.245 44.0105 54.4057 44.0105C52.5147 44.0105 50.8049 43.5432 49.2765 42.6086C47.7481 41.6741 46.5436 40.3631 45.6628 38.6757C44.782 36.9883 44.3416 35.0673 44.3416 32.9126ZM62.3718 32.9515C62.3718 31.342 62.048 29.9402 61.4004 28.746C60.7527 27.5518 59.872 26.6432 58.7578 26.0202C57.6698 25.3712 56.4652 25.0467 55.144 25.0467C53.8229 25.0467 52.6183 25.3582 51.5303 25.9813C50.4423 26.6043 49.5744 27.5129 48.9268 28.7071C48.2792 29.9012 47.9554 31.3031 47.9554 32.9126C47.9554 34.5481 48.2792 35.9758 48.9268 37.196C49.5744 38.3901 50.4423 39.3117 51.5303 39.9607C52.6183 40.5838 53.8229 40.8953 55.144 40.8953C56.4652 40.8953 57.6698 40.5838 58.7578 39.9607C59.872 39.3117 60.7527 38.3901 61.4004 37.196C62.048 35.9758 62.3718 34.561 62.3718 32.9515ZM79.4603 44.0105C77.8283 44.0105 76.3647 43.7379 75.0694 43.1927C73.7742 42.6216 72.7509 41.8428 71.9997 40.8563C71.2484 39.8439 70.8339 38.6887 70.7562 37.3907H74.4088C74.5125 38.455 75.0047 39.3247 75.8854 39.9996C76.7921 40.6746 77.9708 41.0121 79.4215 41.0121C80.7685 41.0121 81.8306 40.7136 82.6078 40.1165C83.3849 39.5194 83.7735 38.7666 83.7735 37.858C83.7735 36.9234 83.359 36.2354 82.5301 35.7941C81.7011 35.3268 80.4188 34.8726 78.6832 34.4312C77.103 34.0159 75.8077 33.6005 74.7974 33.1852C73.813 32.7438 72.9582 32.1078 72.2328 31.2771C71.5334 30.4204 71.1837 29.3041 71.1837 27.9283C71.1837 26.8379 71.5075 25.8385 72.1551 24.9299C72.8027 24.0213 73.7224 23.3074 74.914 22.7882C76.1056 22.243 77.4656 21.9704 78.994 21.9704C81.3514 21.9704 83.2554 22.5675 84.7061 23.7617C86.1568 24.9558 86.934 26.5913 87.0376 28.6681H83.5015C83.4238 27.5518 82.9705 26.6562 82.1415 25.9813C81.3385 25.3063 80.2504 24.9688 78.8775 24.9688C77.6081 24.9688 76.5978 25.2414 75.8466 25.7866C75.0953 26.3317 74.7197 27.0456 74.7197 27.9283C74.7197 28.6292 74.9399 29.2133 75.3803 29.6806C75.8466 30.1219 76.4165 30.4853 77.09 30.7709C77.7895 31.0305 78.7479 31.329 79.9655 31.6665C81.4939 32.0819 82.7373 32.4972 83.6958 32.9126C84.6543 33.302 85.4703 33.899 86.1438 34.7038C86.8433 35.5086 87.206 36.5599 87.2319 37.858C87.2319 39.0261 86.9081 40.0775 86.2604 41.0121C85.6128 41.9466 84.6932 42.6865 83.5015 43.2317C82.3358 43.7509 80.9887 44.0105 79.4603 44.0105ZM94.0502 18.8552C93.3767 18.8552 92.8068 18.6216 92.3405 18.1543C91.8742 17.687 91.641 17.1159 91.641 16.441C91.641 15.766 91.8742 15.1949 92.3405 14.7276C92.8068 14.2603 93.3767 14.0267 94.0502 14.0267C94.6978 14.0267 95.2418 14.2603 95.6822 14.7276C96.1485 15.1949 96.3817 15.766 96.3817 16.441C96.3817 17.1159 96.1485 17.687 95.6822 18.1543C95.2418 18.6216 94.6978 18.8552 94.0502 18.8552ZM95.7599 22.3209V43.66H92.2239V22.3209H95.7599ZM100.465 32.9515C100.465 30.7449 100.906 28.8239 101.786 27.1884C102.667 25.527 103.885 24.2419 105.439 23.3333C107.019 22.4247 108.82 21.9704 110.84 21.9704C113.457 21.9704 115.607 22.6065 117.291 23.8785C119 25.1505 120.127 26.9158 120.671 29.1743H116.863C116.5 27.8763 115.788 26.8509 114.726 26.0981C113.69 25.3452 112.395 24.9688 110.84 24.9688C108.82 24.9688 107.188 25.6697 105.944 27.0716C104.701 28.4475 104.079 30.4074 104.079 32.9515C104.079 35.5215 104.701 37.5075 105.944 38.9093C107.188 40.3112 108.82 41.0121 110.84 41.0121C112.395 41.0121 113.69 40.6487 114.726 39.9218C115.762 39.1949 116.475 38.1565 116.863 36.8066H120.671C120.101 38.9872 118.961 40.7395 117.252 42.0635C115.542 43.3615 113.405 44.0105 110.84 44.0105C108.82 44.0105 107.019 43.5562 105.439 42.6476C103.885 41.739 102.667 40.454 101.786 38.7925C100.906 37.1311 100.465 35.1841 100.465 32.9515ZM132.928 44.0105C131.296 44.0105 129.832 43.7379 128.537 43.1927C127.242 42.6216 126.218 41.8428 125.467 40.8563C124.716 39.8439 124.301 38.6887 124.224 37.3907H127.876C127.98 38.455 128.472 39.3247 129.353 39.9996C130.26 40.6746 131.438 41.0121 132.889 41.0121C134.236 41.0121 135.298 40.7136 136.075 40.1165C136.852 39.5194 137.241 38.7666 137.241 37.858C137.241 36.9234 136.827 36.2354 135.998 35.7941C135.169 35.3268 133.886 34.8726 132.151 34.4312C130.57 34.0159 129.275 33.6005 128.265 33.1852C127.281 32.7438 126.426 32.1078 125.7 31.2771C125.001 30.4204 124.651 29.3041 124.651 27.9283C124.651 26.8379 124.975 25.8385 125.623 24.9299C126.27 24.0213 127.19 23.3074 128.382 22.7882C129.573 22.243 130.933 21.9704 132.462 21.9704C134.819 21.9704 136.723 22.5675 138.174 23.7617C139.624 24.9558 140.401 26.5913 140.505 28.6681H136.969C136.891 27.5518 136.438 26.6562 135.609 25.9813C134.806 25.3063 133.718 24.9688 132.345 24.9688C131.076 24.9688 130.065 25.2414 129.314 25.7866C128.563 26.3317 128.187 27.0456 128.187 27.9283C128.187 28.6292 128.407 29.2133 128.848 29.6806C129.314 30.1219 129.884 30.4853 130.558 30.7709C131.257 31.0305 132.215 31.329 133.433 31.6665C134.961 32.0819 136.205 32.4972 137.163 32.9126C138.122 33.302 138.938 33.899 139.611 34.7038C140.311 35.5086 140.673 36.5599 140.699 37.858C140.699 39.0261 140.376 40.0775 139.728 41.0121C139.08 41.9466 138.161 42.6865 136.969 43.2317C135.803 43.7509 134.456 44.0105 132.928 44.0105Z" fill="#090909"/>
<path d="M161.822 43.4205C159.827 43.4205 158.014 42.9662 156.382 42.0576C154.776 41.149 153.507 39.864 152.574 38.2025C151.667 36.5151 151.214 34.5681 151.214 32.3615C151.214 30.1809 151.68 28.2598 152.613 26.5984C153.571 24.911 154.867 23.626 156.499 22.7433C158.131 21.8347 159.957 21.3804 161.978 21.3804C163.998 21.3804 165.824 21.8347 167.456 22.7433C169.088 23.626 170.371 24.898 171.303 26.5595C172.262 28.2209 172.741 30.1549 172.741 32.3615C172.741 34.5681 172.249 36.5151 171.265 38.2025C170.306 39.864 168.998 41.149 167.34 42.0576C165.682 42.9662 163.843 43.4205 161.822 43.4205ZM161.822 40.3053C163.091 40.3053 164.283 40.0067 165.397 39.4097C166.511 38.8126 167.405 37.917 168.078 36.7228C168.778 35.5286 169.127 34.0749 169.127 32.3615C169.127 30.6482 168.791 29.1944 168.117 28.0002C167.444 26.8061 166.563 25.9234 165.475 25.3523C164.387 24.7552 163.208 24.4567 161.939 24.4567C160.643 24.4567 159.452 24.7552 158.364 25.3523C157.302 25.9234 156.447 26.8061 155.799 28.0002C155.152 29.1944 154.828 30.6482 154.828 32.3615C154.828 34.1008 155.139 35.5676 155.76 36.7617C156.408 37.9559 157.263 38.8515 158.325 39.4486C159.387 40.0197 160.553 40.3053 161.822 40.3053ZM186.056 24.6514H181.587V43.07H178.051V24.6514H175.292V21.7309H178.051V20.2122C178.051 17.8239 178.66 16.0846 179.877 14.9943C181.121 13.878 183.103 13.3199 185.823 13.3199V16.2793C184.268 16.2793 183.167 16.5908 182.52 17.2139C181.898 17.8109 181.587 18.8104 181.587 20.2122V21.7309H186.056V24.6514Z" fill="#090909"/>
<path d="M194.782 30.07C194.782 27.422 195.377 25.0467 196.569 22.9439C197.761 20.8152 199.38 19.1538 201.426 17.9596C203.499 16.7655 205.791 16.1684 208.304 16.1684C211.257 16.1684 213.835 16.8823 216.037 18.3101C218.239 19.7379 219.845 21.7628 220.855 24.3847H216.62C215.868 22.7492 214.78 21.4902 213.356 20.6075C211.957 19.7249 210.273 19.2836 208.304 19.2836C206.413 19.2836 204.716 19.7249 203.214 20.6075C201.711 21.4902 200.533 22.7492 199.678 24.3847C198.823 25.9942 198.395 27.8893 198.395 30.07C198.395 32.2246 198.823 34.1197 199.678 35.7552C200.533 37.3647 201.711 38.6108 203.214 39.4934C204.716 40.3761 206.413 40.8174 208.304 40.8174C210.273 40.8174 211.957 40.389 213.356 39.5324C214.78 38.6497 215.868 37.3907 216.62 35.7552H220.855C219.845 38.3512 218.239 40.3631 216.037 41.7909C213.835 43.1927 211.257 43.8937 208.304 43.8937C205.791 43.8937 203.499 43.3096 201.426 42.1414C199.38 40.9472 197.761 39.2987 196.569 37.196C195.377 35.0932 194.782 32.7179 194.782 30.07ZM249.653 32.9126C249.653 30.7319 250.093 28.8239 250.974 27.1884C251.855 25.527 253.059 24.2419 254.588 23.3333C256.142 22.4247 257.878 21.9704 259.795 21.9704C261.452 21.9704 262.994 22.3598 264.419 23.1386C265.843 23.8915 266.931 24.8909 267.683 26.137V14.8444H271.258V43.66H267.683V39.6492C266.983 40.9212 265.947 41.9726 264.574 42.8033C263.201 43.6081 261.595 44.0105 259.756 44.0105C257.865 44.0105 256.142 43.5432 254.588 42.6086C253.059 41.6741 251.855 40.3631 250.974 38.6757C250.093 36.9883 249.653 35.0673 249.653 32.9126ZM267.683 32.9515C267.683 31.342 267.359 29.9402 266.711 28.746C266.064 27.5518 265.183 26.6432 264.069 26.0202C262.981 25.3712 261.776 25.0467 260.455 25.0467C259.134 25.0467 257.929 25.3582 256.841 25.9813C255.753 26.6043 254.886 27.5129 254.238 28.7071C253.59 29.9012 253.266 31.3031 253.266 32.9126C253.266 34.5481 253.59 35.9758 254.238 37.196C254.886 38.3901 255.753 39.3117 256.841 39.9607C257.929 40.5838 259.134 40.8953 260.455 40.8953C261.776 40.8953 262.981 40.5838 264.069 39.9607C265.183 39.3117 266.064 38.3901 266.711 37.196C267.359 35.9758 267.683 34.561 267.683 32.9515ZM279.06 18.8552C278.386 18.8552 277.816 18.6216 277.35 18.1543C276.884 17.687 276.651 17.1159 276.651 16.441C276.651 15.766 276.884 15.1949 277.35 14.7276C277.816 14.2603 278.386 14.0267 279.06 14.0267C279.707 14.0267 280.251 14.2603 280.692 14.7276C281.158 15.1949 281.391 15.766 281.391 16.441C281.391 17.1159 281.158 17.687 280.692 18.1543C280.251 18.6216 279.707 18.8552 279.06 18.8552ZM280.769 22.3209V43.66H277.233V22.3209H280.769ZM297.171 21.9315C299.761 21.9315 301.86 22.7233 303.466 24.3068C305.072 25.8644 305.875 28.123 305.875 31.0824V43.66H302.378V31.5886C302.378 29.4599 301.847 27.8374 300.785 26.7211C299.723 25.5789 298.272 25.0078 296.433 25.0078C294.567 25.0078 293.078 25.5919 291.964 26.7601C290.876 27.9283 290.332 29.6286 290.332 31.8612V43.66H286.796V22.3209H290.332V25.3582C291.031 24.2679 291.977 23.4242 293.169 22.8271C294.386 22.23 295.72 21.9315 297.171 21.9315ZM320.433 21.9704C322.272 21.9704 323.878 22.3728 325.251 23.1776C326.65 23.9823 327.687 24.9948 328.36 26.2149V22.3209H331.935V44.1273C331.935 46.0743 331.52 47.8006 330.692 49.3063C329.863 50.8379 328.671 52.0321 327.117 52.8888C325.588 53.7455 323.801 54.1738 321.754 54.1738C318.957 54.1738 316.625 53.5118 314.76 52.1879C312.895 50.8639 311.794 49.0597 311.457 46.7752H314.954C315.343 48.0732 316.146 49.1116 317.363 49.8904C318.581 50.6952 320.045 51.0975 321.754 51.0975C323.697 51.0975 325.277 50.4875 326.495 49.2674C327.738 48.0472 328.36 46.3339 328.36 44.1273V39.6492C327.661 40.8953 326.624 41.9337 325.251 42.7644C323.878 43.5951 322.272 44.0105 320.433 44.0105C318.542 44.0105 316.819 43.5432 315.265 42.6086C313.737 41.6741 312.532 40.3631 311.651 38.6757C310.77 36.9883 310.33 35.0673 310.33 32.9126C310.33 30.7319 310.77 28.8239 311.651 27.1884C312.532 25.527 313.737 24.2419 315.265 23.3333C316.819 22.4247 318.542 21.9704 320.433 21.9704ZM328.36 32.9515C328.36 31.342 328.036 29.9402 327.389 28.746C326.741 27.5518 325.86 26.6432 324.746 26.0202C323.658 25.3712 322.454 25.0467 321.133 25.0467C319.811 25.0467 318.607 25.3582 317.519 25.9813C316.431 26.6043 315.563 27.5129 314.915 28.7071C314.268 29.9012 313.944 31.3031 313.944 32.9126C313.944 34.5481 314.268 35.9758 314.915 37.196C315.563 38.3901 316.431 39.3117 317.519 39.9607C318.607 40.5838 319.811 40.8953 321.133 40.8953C322.454 40.8953 323.658 40.5838 324.746 39.9607C325.86 39.3117 326.741 38.3901 327.389 37.196C328.036 35.9758 328.36 34.561 328.36 32.9515Z" fill="#090909"/>
<path d="M235.406 44.0105C233.411 44.0105 231.597 43.5562 229.965 42.6476C228.359 41.739 227.09 40.4539 226.157 38.7925C225.251 37.1051 224.797 35.1581 224.797 32.9515C224.797 30.7709 225.264 28.8498 226.196 27.1884C227.155 25.501 228.45 24.216 230.082 23.3333C231.714 22.4247 233.54 21.9704 235.561 21.9704C237.582 21.9704 239.408 22.4247 241.04 23.3333C242.672 24.216 243.954 25.488 244.887 27.1494C245.845 28.8109 246.324 30.7449 246.324 32.9515C246.324 35.1581 245.832 37.1051 244.848 38.7925C243.889 40.4539 242.581 41.739 240.923 42.6476C239.265 43.5562 237.426 44.0105 235.406 44.0105ZM235.406 40.8953C236.675 40.8953 237.866 40.5967 238.98 39.9996C240.094 39.4026 240.988 38.5069 241.662 37.3128C242.361 36.1186 242.711 34.6649 242.711 32.9515C242.711 31.2381 242.374 29.7844 241.7 28.5902C241.027 27.3961 240.146 26.5134 239.058 25.9423C237.97 25.3452 236.791 25.0467 235.522 25.0467C234.227 25.0467 233.035 25.3452 231.947 25.9423C230.885 26.5134 230.03 27.3961 229.383 28.5902C228.735 29.7844 228.411 31.2381 228.411 32.9515C228.411 34.6908 228.722 36.1576 229.344 37.3517C229.991 38.5459 230.846 39.4415 231.908 40.0386C232.97 40.6097 234.136 40.8953 235.406 40.8953Z" fill="#573898"/>
<path d="M7.06503 7.07999H0V51.92H7.06503V7.07999Z" fill="#090909"/>
</svg>
