<svg width="152" height="76" viewBox="0 0 152 76" fill="none" xmlns="http://www.w3.org/2000/svg">
<g clip-path="url(#clip0_59_54)">
<path d="M28.769 18.5346C29.5691 18.6619 30.2956 18.9907 30.9483 19.5211C31.6222 20.0514 32.1486 20.7091 32.5276 21.494C32.9277 22.279 33.1277 23.117 33.1277 24.008C33.1277 25.1324 32.8435 26.1506 32.2749 27.0629C31.7064 27.9539 30.8746 28.6646 29.7797 29.195C28.7058 29.7041 27.4319 29.9586 25.9579 29.9586H17.7459V7.77879H25.6421C27.1371 7.77879 28.4111 8.03337 29.4639 8.54249C30.5167 9.03045 31.3063 9.69876 31.8327 10.5473C32.3592 11.3959 32.6224 12.3506 32.6224 13.4113C32.6224 14.7266 32.2644 15.8191 31.5485 16.689C30.8536 17.5375 29.9271 18.1527 28.769 18.5346ZM20.6201 17.3572H25.4526C26.8002 17.3572 27.8425 17.039 28.5795 16.4025C29.3165 15.7661 29.685 14.8857 29.685 13.7613C29.685 12.6369 29.3165 11.7566 28.5795 11.1201C27.8425 10.4837 26.7792 10.1655 25.3894 10.1655H20.6201V17.3572ZM25.7052 27.5721C27.1371 27.5721 28.2531 27.2326 29.0533 26.5538C29.8535 25.8749 30.2534 24.9308 30.2534 23.7216C30.2534 22.4911 29.8323 21.5258 28.9901 20.8258C28.1478 20.1045 27.0213 19.7438 25.6105 19.7438H20.6201V27.5721H25.7052ZM36.0424 21.1758C36.0424 19.3938 36.4003 17.8345 37.1163 16.498C37.8322 15.1403 38.8114 14.0902 40.0537 13.3477C41.3171 12.6051 42.7174 12.2339 44.2544 12.2339C45.7705 12.2339 47.0866 12.5627 48.2028 13.2203C49.3187 13.878 50.1505 14.7054 50.6979 15.7024V12.5202H53.6037V29.9586H50.6979V26.7129C50.1294 27.7311 49.2766 28.5797 48.1396 29.2586C47.0234 29.9162 45.7179 30.2451 44.2229 30.2451C42.6857 30.2451 41.296 29.8632 40.0537 29.0995C38.8114 28.3358 37.8322 27.2644 37.1163 25.8854C36.4003 24.5065 36.0424 22.9366 36.0424 21.1758ZM50.6979 21.2076C50.6979 19.8923 50.4347 18.7468 49.9083 17.7709C49.382 16.795 48.666 16.0525 47.7604 15.5433C46.876 15.013 45.8968 14.7478 44.823 14.7478C43.7491 14.7478 42.77 15.0024 41.8856 15.5115C41.0012 16.0206 40.2959 16.7632 39.7694 17.7391C39.243 18.7149 38.9798 19.8605 38.9798 21.1758C38.9798 22.5124 39.243 23.6792 39.7694 24.6762C40.2959 25.6521 41.0012 26.4053 41.8856 26.9356C42.77 27.4448 43.7491 27.6993 44.823 27.6993C45.8968 27.6993 46.876 27.4448 47.7604 26.9356C48.666 26.4053 49.382 25.6521 49.9083 24.6762C50.4347 23.6792 50.6979 22.523 50.6979 21.2076ZM64.5881 30.2451C63.2615 30.2451 62.0718 30.0223 61.019 29.5768C59.9662 29.1101 59.1344 28.4736 58.5238 27.6675C57.9131 26.8401 57.5763 25.8961 57.5131 24.8353H60.4821C60.5663 25.7052 60.9664 26.4158 61.6823 26.9674C62.4192 27.519 63.3773 27.7948 64.5565 27.7948C65.6515 27.7948 66.5148 27.5508 67.1465 27.0629C67.7782 26.5749 68.094 25.9597 68.094 25.2172C68.094 24.4535 67.7571 23.8913 67.0833 23.5307C66.4095 23.1488 65.3672 22.7775 63.9564 22.4169C62.672 22.0774 61.6191 21.7381 60.7979 21.3986C59.9977 21.038 59.3029 20.5182 58.7133 19.8393C58.1448 19.1393 57.8605 18.227 57.8605 17.1026C57.8605 16.2116 58.1237 15.3948 58.6501 14.6523C59.1766 13.9098 59.9241 13.3264 60.8927 12.9021C61.8612 12.4567 62.9668 12.2339 64.2091 12.2339C66.1252 12.2339 67.6729 12.7218 68.852 13.6977C70.0312 14.6736 70.6629 16.0101 70.7471 17.7073H67.873C67.8097 16.795 67.4413 16.0631 66.7674 15.5115C66.1147 14.9599 65.2304 14.6842 64.1143 14.6842C63.0825 14.6842 62.2613 14.9069 61.6507 15.3524C61.0401 15.798 60.7347 16.3813 60.7347 17.1026C60.7347 17.6754 60.9137 18.1527 61.2717 18.5346C61.6507 18.8952 62.1139 19.1923 62.6614 19.4256C63.23 19.6378 64.0091 19.8818 64.9987 20.1575C66.241 20.497 67.2518 20.8364 68.0308 21.1758C68.8099 21.494 69.4732 21.982 70.0207 22.6396C70.5892 23.2973 70.884 24.1565 70.9051 25.2172C70.9051 26.1719 70.6419 27.0311 70.1155 27.7948C69.589 28.5585 68.8415 29.1632 67.873 29.6086C66.9254 30.0329 65.8305 30.2451 64.5881 30.2451ZM76.4472 9.68813C75.8998 9.68813 75.4365 9.49715 75.0575 9.11535C74.6785 8.73347 74.489 8.26677 74.489 7.71515C74.489 7.16357 74.6785 6.69685 75.0575 6.31498C75.4365 5.93312 75.8998 5.74219 76.4472 5.74219C76.9737 5.74219 77.4159 5.93312 77.7738 6.31498C78.1528 6.69685 78.3423 7.16357 78.3423 7.71515C78.3423 8.26677 78.1528 8.73347 77.7738 9.11535C77.4159 9.49715 76.9737 9.68813 76.4472 9.68813ZM77.837 12.5202V29.9586H74.9627V12.5202H77.837ZM81.6614 21.2076C81.6614 19.4044 82.0199 17.8345 82.7351 16.498C83.4513 15.1403 84.4413 14.0902 85.7044 13.3477C86.9887 12.6051 88.4526 12.2339 90.0945 12.2339C92.2217 12.2339 93.9693 12.7536 95.3381 13.7931C96.7273 14.8327 97.6433 16.2753 98.0855 18.1209H94.9902C94.696 17.0602 94.1164 16.2223 93.2532 15.607C92.4111 14.9918 91.3585 14.6842 90.0945 14.6842C88.4526 14.6842 87.1261 15.257 86.1149 16.4025C85.1046 17.5269 84.599 19.1286 84.599 21.2076C84.599 23.3079 85.1046 24.9308 86.1149 26.0764C87.1261 27.222 88.4526 27.7948 90.0945 27.7948C91.3585 27.7948 92.4111 27.4978 93.2532 26.9038C94.0953 26.3097 94.6749 25.4612 94.9902 24.358H98.0855C97.6222 26.1401 96.6964 27.572 95.3064 28.654C93.9165 29.7147 92.1795 30.2451 90.0945 30.2451C88.4526 30.2451 86.9887 29.8738 85.7044 29.1313C84.4413 28.3888 83.4513 27.3387 82.7351 25.9809C82.0199 24.6232 81.6614 23.0321 81.6614 21.2076ZM108.048 30.2451C106.722 30.2451 105.532 30.0223 104.479 29.5768C103.427 29.1101 102.594 28.4736 101.984 27.6675C101.373 26.8401 101.036 25.8961 100.974 24.8353H103.942C104.027 25.7052 104.426 26.4158 105.143 26.9674C105.88 27.519 106.837 27.7948 108.017 27.7948C109.112 27.7948 109.975 27.5508 110.606 27.0629C111.239 26.5749 111.554 25.9597 111.554 25.2172C111.554 24.4535 111.218 23.8913 110.544 23.5307C109.87 23.1488 108.827 22.7775 107.417 22.4169C106.133 22.0774 105.079 21.7381 104.258 21.3986C103.458 21.038 102.763 20.5182 102.173 19.8393C101.605 19.1393 101.321 18.227 101.321 17.1026C101.321 16.2116 101.584 15.3948 102.111 14.6523C102.637 13.9098 103.384 13.3264 104.353 12.9021C105.321 12.4567 106.427 12.2339 107.67 12.2339C109.586 12.2339 111.133 12.7218 112.313 13.6977C113.491 14.6736 114.124 16.0101 114.207 17.7073H111.333C111.27 16.795 110.901 16.0631 110.228 15.5115C109.575 14.9599 108.691 14.6842 107.575 14.6842C106.543 14.6842 105.721 14.9069 105.111 15.3524C104.5 15.798 104.195 16.3813 104.195 17.1026C104.195 17.6754 104.374 18.1527 104.732 18.5346C105.111 18.8952 105.574 19.1923 106.122 19.4256C106.69 19.6378 107.469 19.8818 108.459 20.1575C109.701 20.497 110.712 20.8364 111.491 21.1758C112.27 21.494 112.934 21.982 113.481 22.6396C114.05 23.2973 114.345 24.1565 114.365 25.2172C114.365 26.1719 114.102 27.0311 113.576 27.7948C113.049 28.5585 112.302 29.1632 111.333 29.6086C110.385 30.0329 109.29 30.2451 108.048 30.2451Z" fill="#F9F9F9"/>
<path d="M131.534 29.7629C129.913 29.7629 128.439 29.3916 127.113 28.6491C125.807 27.9066 124.776 26.8565 124.017 25.4988C123.28 24.1198 122.912 22.5287 122.912 20.7255C122.912 18.9434 123.291 17.3736 124.049 16.0159C124.828 14.6369 125.881 13.5867 127.208 12.8655C128.534 12.1229 130.019 11.7517 131.661 11.7517C133.303 11.7517 134.787 12.1229 136.114 12.8655C137.441 13.5867 138.483 14.6263 139.241 15.984C140.02 17.3418 140.41 18.9222 140.41 20.7255C140.41 22.5287 140.01 24.1198 139.209 25.4988C138.431 26.8565 137.367 27.9066 136.02 28.6491C134.672 29.3916 133.177 29.7629 131.534 29.7629ZM131.534 27.2171C132.566 27.2171 133.535 26.9732 134.44 26.4852C135.346 25.9973 136.073 25.2654 136.62 24.2896C137.189 23.3137 137.472 22.1256 137.472 20.7255C137.472 19.3253 137.199 18.1373 136.651 17.1614C136.103 16.1855 135.388 15.4643 134.504 14.9975C133.619 14.5096 132.661 14.2657 131.63 14.2657C130.576 14.2657 129.608 14.5096 128.724 14.9975C127.86 15.4643 127.165 16.1855 126.639 17.1614C126.113 18.1373 125.85 19.3253 125.85 20.7255C125.85 22.1469 126.102 23.3454 126.607 24.3214C127.134 25.2973 127.829 26.0292 128.692 26.5171C129.555 26.9838 130.503 27.2171 131.534 27.2171ZM151.233 14.4248H147.6V29.4765H144.726V14.4248H142.483V12.0381H144.726V10.797C144.726 8.8453 145.221 7.42391 146.21 6.53289C147.221 5.62067 148.832 5.16455 151.043 5.16455V7.58302C149.779 7.58302 148.884 7.83759 148.359 8.34673C147.853 8.83468 147.6 9.65148 147.6 10.797V12.0381H151.233V14.4248Z" fill="#F9F9F9"/>
<path d="M5.68984 0H0V42.4946H5.68984V21.2473V0Z" fill="#F9F9F9"/>
<path d="M5.68984 32.6882H0V75.1829H5.68984V53.9355V32.6882Z" fill="#F9F9F9"/>
<path d="M50.0772 67.0434C48.4558 67.0434 46.9819 66.6722 45.6553 65.9296C44.3498 65.1871 43.318 64.137 42.56 62.7793C41.823 61.4004 41.4545 59.8093 41.4545 58.006C41.4545 56.224 41.8336 54.6541 42.5916 53.2964C43.3707 51.9174 44.4235 50.8673 45.75 50.146C47.0767 49.4035 48.5611 49.0322 50.2036 49.0322C51.846 49.0322 53.3304 49.4035 54.657 50.146C55.9835 50.8673 57.0258 51.9068 57.7839 53.2645C58.563 54.6223 58.9525 56.2028 58.9525 58.006C58.9525 59.8093 58.5524 61.4004 57.7523 62.7793C56.9732 64.137 55.9098 65.1871 54.5622 65.9296C53.2146 66.6722 51.7196 67.0434 50.0772 67.0434ZM50.0772 64.4977C51.109 64.4977 52.0775 64.2537 52.983 63.7658C53.8885 63.2778 54.6149 62.5459 55.1623 61.5701C55.7308 60.5942 56.0152 59.4061 56.0152 58.006C56.0152 56.6058 55.7414 55.4179 55.1939 54.442C54.6464 53.466 53.9306 52.7448 53.0461 52.2781C52.1617 51.7901 51.2037 51.5462 50.1719 51.5462C49.1191 51.5462 48.1505 51.7901 47.2661 52.2781C46.4028 52.7448 45.7079 53.466 45.1815 54.442C44.6551 55.4179 44.3919 56.6058 44.3919 58.006C44.3919 59.4274 44.6446 60.626 45.1499 61.6019C45.6764 62.5778 46.3712 63.3097 47.2346 63.7976C48.0979 64.2643 49.0454 64.4977 50.0772 64.4977Z" fill="#573898"/>
<path d="M17.0695 55.6053C17.0695 53.4414 17.5538 51.5002 18.5224 49.7819C19.491 48.0422 20.807 46.6845 22.4705 45.7086C24.1551 44.7328 26.0186 44.2448 28.0611 44.2448C30.4614 44.2448 32.5566 44.8282 34.3464 45.995C36.1363 47.1618 37.4417 48.8166 38.263 50.9592H34.8202C34.2095 49.6228 33.3251 48.5938 32.167 47.8726C31.03 47.1512 29.6613 46.7906 28.0611 46.7906C26.5239 46.7906 25.1447 47.1512 23.9234 47.8726C22.7021 48.5938 21.744 49.6228 21.0492 50.9592C20.3543 52.2746 20.0069 53.8232 20.0069 55.6053C20.0069 57.3661 20.3543 58.9147 21.0492 60.2513C21.744 61.5665 22.7021 62.5849 23.9234 63.3062C25.1447 64.0275 26.5239 64.3881 28.0611 64.3881C29.6613 64.3881 31.03 64.0381 32.167 63.338C33.3251 62.6167 34.2095 61.5878 34.8202 60.2513H38.263C37.4417 62.3727 36.1363 64.0168 34.3464 65.1837C32.5566 66.3293 30.4614 66.9021 28.0611 66.9021C26.0186 66.9021 24.1551 66.4247 22.4705 65.4701C20.807 64.4942 19.491 63.1471 18.5224 61.4287C17.5538 59.7103 17.0695 57.7692 17.0695 55.6053ZM61.6706 57.9283C61.6706 56.1463 62.0286 54.587 62.7445 53.2504C63.4604 51.8927 64.4395 50.8426 65.6819 50.1001C66.9453 49.3576 68.3561 48.9863 69.9143 48.9863C71.2619 48.9863 72.5147 49.3046 73.6729 49.941C74.831 50.5562 75.7153 51.373 76.326 52.3912V43.1629H79.2318V66.7111H76.326V63.4334C75.7575 64.473 74.9152 65.3321 73.7993 66.0111C72.6832 66.6687 71.3777 66.9975 69.8827 66.9975C68.3455 66.9975 66.9453 66.6156 65.6819 65.852C64.4395 65.0882 63.4604 64.0168 62.7445 62.6379C62.0286 61.2589 61.6706 59.6891 61.6706 57.9283ZM76.326 57.9601C76.326 56.6448 76.0628 55.4992 75.5364 54.5233C75.01 53.5475 74.294 52.805 73.3886 52.2958C72.5042 51.7654 71.5251 51.5002 70.4512 51.5002C69.3773 51.5002 68.3982 51.7548 67.5138 52.264C66.6295 52.7731 65.924 53.5156 65.3976 54.4915C64.8712 55.4673 64.608 56.613 64.608 57.9283C64.608 59.2648 64.8712 60.4316 65.3976 61.4287C65.924 62.4046 66.6295 63.1576 67.5138 63.688C68.3982 64.1972 69.3773 64.4518 70.4512 64.4518C71.5251 64.4518 72.5042 64.1972 73.3886 63.688C74.294 63.1576 75.01 62.4046 75.5364 61.4287C76.0628 60.4316 76.326 59.2754 76.326 57.9601ZM85.5736 46.4406C85.0265 46.4406 84.5632 46.2496 84.1836 45.8677C83.8048 45.4859 83.6154 45.0191 83.6154 44.4676C83.6154 43.916 83.8048 43.4493 84.1836 43.0674C84.5632 42.6855 85.0265 42.4946 85.5736 42.4946C86.1003 42.4946 86.5425 42.6855 86.9001 43.0674C87.2789 43.4493 87.4691 43.916 87.4691 44.4676C87.4691 45.0191 87.2789 45.4859 86.9001 45.8677C86.5425 46.2496 86.1003 46.4406 85.5736 46.4406ZM86.9635 49.2727V66.7111H84.0893V49.2727H86.9635ZM100.295 48.9545C102.401 48.9545 104.106 49.6015 105.412 50.8957C106.717 52.1685 107.37 54.0142 107.37 56.4326V66.7111H104.527V56.8463C104.527 55.1067 104.096 53.7808 103.232 52.8685C102.369 51.9351 101.19 51.4684 99.6949 51.4684C98.179 51.4684 96.9679 51.9458 96.0624 52.9004C95.178 53.8551 94.7358 55.2447 94.7358 57.0691V66.7111H91.8616V49.2727H94.7358V51.7548C95.3048 50.8638 96.0729 50.1743 97.0418 49.6864C98.0319 49.1985 99.1162 48.9545 100.295 48.9545ZM119.203 48.9863C120.699 48.9863 122.004 49.3151 123.12 49.9728C124.257 50.6305 125.099 51.4578 125.646 52.4549V49.2727H128.552V67.093C128.552 68.6841 128.216 70.0949 127.542 71.3253C126.868 72.577 125.899 73.5528 124.636 74.2529C123.394 74.953 121.941 75.303 120.278 75.303C118.003 75.303 116.108 74.7621 114.592 73.6801C113.076 72.5981 112.181 71.1237 111.907 69.2568H114.75C115.066 70.3176 115.718 71.1662 116.708 71.8026C117.698 72.4603 118.888 72.7891 120.278 72.7891C121.857 72.7891 123.141 72.2906 124.13 71.2935C125.142 70.2964 125.646 68.8962 125.646 67.093V63.4334C125.078 64.4518 124.236 65.3004 123.12 65.9792C122.004 66.6581 120.699 66.9975 119.203 66.9975C117.666 66.9975 116.266 66.6156 115.002 65.852C113.76 65.0882 112.781 64.0168 112.065 62.6379C111.349 61.2589 110.992 59.6891 110.992 57.9283C110.992 56.1463 111.349 54.587 112.065 53.2504C112.781 51.8927 113.76 50.8426 115.002 50.1001C116.266 49.3576 117.666 48.9863 119.203 48.9863ZM125.646 57.9601C125.646 56.6448 125.384 55.4992 124.857 54.5233C124.33 53.5475 123.615 52.805 122.71 52.2958C121.825 51.7654 120.846 51.5002 119.772 51.5002C118.698 51.5002 117.719 51.7548 116.834 52.264C115.95 52.7731 115.244 53.5156 114.719 54.4915C114.192 55.4673 113.928 56.613 113.928 57.9283C113.928 59.2648 114.192 60.4316 114.719 61.4287C115.244 62.4046 115.95 63.1576 116.834 63.688C117.719 64.1972 118.698 64.4518 119.772 64.4518C120.846 64.4518 121.825 64.1972 122.71 63.688C123.615 63.1576 124.33 62.4046 124.857 61.4287C125.384 60.4316 125.646 59.2754 125.646 57.9601Z" fill="#F9F9F9"/>
</g>
<defs>
<clipPath id="clip0_59_54">
<rect width="152" height="76" fill="white"/>
</clipPath>
</defs>
</svg>
