<svg width="47" height="47" viewBox="0 0 47 47" fill="none" xmlns="http://www.w3.org/2000/svg">
<g clip-path="url(#clip0_52_185)">
<path d="M23.5 47C36.4787 47 47 36.7836 47 24.1811C47 11.5786 36.4787 1.3623 23.5 1.3623C10.5213 1.3623 0 11.5786 0 24.1811C0 36.7836 10.5213 47 23.5 47Z" fill="#090909"/>
<path d="M13.5187 36.0559C12.6907 36.0395 11.9725 35.8549 11.3642 35.5021C10.7559 35.1576 10.2574 34.7063 9.86877 34.1484C9.47166 33.5987 9.18019 32.9834 8.99429 32.3026C8.8084 31.6298 8.71545 30.9694 8.71545 30.3213V28.2784C8.71545 27.1545 8.44089 26.3423 7.89169 25.8418C7.35098 25.3414 6.51873 25.0911 5.39502 25.0911V22.913C6.51873 22.913 7.35098 22.6627 7.89169 22.1623C8.44089 21.6618 8.71545 20.8414 8.71545 19.7011V17.6582C8.71545 16.9773 8.81261 16.2759 9.00692 15.5539C9.2013 14.832 9.50968 14.1961 9.93212 13.6465C10.2954 13.146 10.7728 12.7399 11.3642 12.4282C11.9641 12.1082 12.6823 11.9441 13.5187 11.9359L13.8735 13.6465C13.3244 13.6465 12.8935 13.7695 12.5809 14.0157C12.2682 14.2536 12.0359 14.5653 11.8838 14.9509C11.7317 15.3365 11.6388 15.7672 11.605 16.2431C11.5796 16.7189 11.567 17.1906 11.567 17.6582V19.7011C11.567 20.6773 11.322 21.5429 10.8319 22.2977C10.3503 23.0442 9.60263 23.6144 8.58876 24.0082C9.61105 24.3938 10.3588 24.9599 10.8319 25.7065C11.3135 26.4448 11.5585 27.3022 11.567 28.2784V30.3213C11.567 30.7889 11.5966 31.2606 11.6557 31.7364C11.7233 32.2123 11.8458 32.643 12.0232 33.0286C12.2007 33.4142 12.4372 33.7259 12.733 33.9638C13.0286 34.2099 13.4089 34.333 13.8735 34.333L13.5187 36.0559ZM34.1714 34.333C34.6276 34.333 35.0036 34.2099 35.2993 33.9638C35.6034 33.7259 35.8443 33.4142 36.0217 33.0286C36.1991 32.643 36.3216 32.2123 36.3892 31.7364C36.4652 31.2606 36.5033 30.7889 36.5033 30.3213V28.2784C36.5033 27.7369 36.5751 27.2283 36.7187 26.7525C36.8708 26.2684 37.1032 25.8336 37.4158 25.448C37.6439 25.1445 37.9184 24.8738 38.2395 24.6358C38.569 24.3897 38.945 24.1805 39.3674 24.0082C38.9957 23.8605 38.6577 23.6841 38.3536 23.479C38.0579 23.2657 37.796 23.0319 37.5678 22.7776C37.2045 22.3674 36.9342 21.9038 36.7567 21.387C36.5878 20.8619 36.5033 20.3 36.5033 19.7011V17.6582C36.5033 17.1906 36.4821 16.7189 36.4399 16.2431C36.4061 15.7672 36.3174 15.3365 36.1738 14.9509C36.0217 14.5653 35.7893 14.2536 35.4767 14.0157C35.1641 13.7695 34.7332 13.6465 34.184 13.6465L34.5389 11.9359C35.4091 11.9441 36.1442 12.1205 36.7441 12.4651C37.3524 12.8014 37.8467 13.2485 38.2269 13.8064C38.6239 14.3561 38.907 14.9756 39.076 15.6647C39.2534 16.3456 39.3421 17.0101 39.3421 17.6582V19.7011C39.3421 20.1769 39.3844 20.5953 39.4689 20.9563C39.5618 21.3173 39.7054 21.6249 39.8997 21.8792C40.1532 22.232 40.5123 22.4945 40.977 22.6669C41.4417 22.8309 42.0035 22.913 42.6626 22.913V25.0911C41.9951 25.0911 41.4333 25.1773 40.977 25.3495C40.5208 25.5136 40.1617 25.7803 39.8997 26.1494C39.7138 26.3956 39.5745 26.6991 39.4815 27.0601C39.3886 27.4129 39.3421 27.819 39.3421 28.2784V30.3213C39.3421 30.9694 39.245 31.6339 39.0507 32.3148C38.8563 32.9958 38.569 33.607 38.1889 34.1484C37.8002 34.7063 37.3017 35.1616 36.6934 35.5144C36.085 35.8672 35.3669 36.0477 34.5389 36.0559L34.1714 34.333Z" fill="white"/>
<path d="M14.1592 24.7931C14.1592 24.2271 14.3451 23.743 14.7168 23.341C15.097 22.939 15.642 22.738 16.3517 22.738C17.0445 22.738 17.5852 22.939 17.9739 23.341C18.3625 23.7348 18.5568 24.2188 18.5568 24.7931C18.5568 25.3674 18.3583 25.8473 17.9612 26.2329C17.5726 26.6185 17.0361 26.8113 16.3517 26.8113C15.6588 26.8113 15.1181 26.6185 14.7295 26.2329C14.3493 25.8392 14.1592 25.3592 14.1592 24.7931ZM21.3121 24.7931C21.3121 24.2271 21.4979 23.743 21.8697 23.341C22.2499 22.939 22.7948 22.738 23.5046 22.738C24.1974 22.738 24.7381 22.939 25.1268 23.341C25.5154 23.7348 25.7097 24.2188 25.7097 24.7931C25.7097 25.3674 25.5112 25.8473 25.1141 26.2329C24.7254 26.6185 24.1889 26.8113 23.5046 26.8113C22.8117 26.8113 22.271 26.6185 21.8824 26.2329C21.5022 25.8392 21.3121 25.3592 21.3121 24.7931ZM28.4649 24.7931C28.4649 24.2271 28.6508 23.743 29.0226 23.341C29.4028 22.939 29.9477 22.738 30.6574 22.738C31.3503 22.738 31.891 22.939 32.2796 23.341C32.6683 23.7348 32.8627 24.2188 32.8627 24.7931C32.8627 25.3674 32.6641 25.8473 32.267 26.2329C31.8783 26.6185 31.3418 26.8113 30.6574 26.8113C29.9646 26.8113 29.4239 26.6185 29.0352 26.2329C28.655 25.8392 28.4649 25.3592 28.4649 24.7931Z" fill="white"/>
</g>
<defs>
<clipPath id="clip0_52_185">
<rect width="47" height="47" fill="white"/>
</clipPath>
</defs>
</svg>
